<svg xmlns="http://www.w3.org/2000/svg" xmlns:xlink="http://www.w3.org/1999/xlink" viewBox="0 0 294.5 41.51"><defs><style>.cls-1{fill:url(#linear-gradient);}.cls-2{fill:#ec1b2f;}.cls-3{font-size:7.12px;fill:#fff;font-family:Bariol-Regular, Bariol;}.cls-4{letter-spacing:-0.07em;}.cls-5{letter-spacing:0.02em;}</style><linearGradient id="linear-gradient" x1="-23.54" y1="-121.37" x2="270.96" y2="-121.37" gradientTransform="translate(23.54 155.87)" gradientUnits="userSpaceOnUse"><stop offset="0" stop-color="#d8251c"/><stop offset="1" stop-color="#0191db"/></linearGradient></defs><title>footer_1</title><g id="Layer_2" data-name="Layer 2"><g id="Layer_1-2" data-name="Layer 1"><path class="cls-1" d="M12,25.08H282.5a12,12,0,0,1,12,12v6.83a0,0,0,0,1,0,0H0a0,0,0,0,1,0,0V37.08A12,12,0,0,1,12,25.08Z" transform="translate(294.5 66.59) rotate(180)"/><path class="cls-2" d="M.06,3.2H45.33a35,35,0,0,1,35,35v3.17a0,0,0,0,1,0,0H11.06a11,11,0,0,1-11-11V3.2A0,0,0,0,1,.06,3.2Z"/><text class="cls-3" transform="translate(11.99 25.8)">ww<tspan class="cls-4" x="9.11" y="0">w</tspan><tspan x="13.17" y="0">.pe</tspan><tspan class="cls-5" x="21.24" y="0">r</tspan><tspan x="23.59" y="0">tamina.com</tspan></text><path d="M159.28,2.54h2V15h-2Zm1.09,5.3h7.06V9.79h-7.06Zm5.84-5.3h2V15h-2Z" transform="translate(0 -2.41)"/><path d="M174.07,15.07l-.83-.17a7,7,0,0,1-1.54-.52,6,6,0,0,1-1.32-.84l1.08-1.63a5.26,5.26,0,0,0,1.61.92,5.94,5.94,0,0,0,1.89.31,3.55,3.55,0,0,0,1.94-.45,1.39,1.39,0,0,0,.68-1.25h0a1.33,1.33,0,0,0-.3-.91,1.84,1.84,0,0,0-.81-.49,8.91,8.91,0,0,0-1.27-.3h-.1l-.15,0a12.41,12.41,0,0,1-2-.49,2.93,2.93,0,0,1-1.37-1,3.29,3.29,0,0,1-.56-2h0a3.73,3.73,0,0,1,.53-2A3.31,3.31,0,0,1,173,2.84a6.62,6.62,0,0,1,3.75-.28,7,7,0,0,1,1.32.43,6.84,6.84,0,0,1,1.25.72l-1,1.68a5.76,5.76,0,0,0-1.46-.78,4.21,4.21,0,0,0-1.45-.27,3.22,3.22,0,0,0-1.82.44A1.37,1.37,0,0,0,173,6h0a1.25,1.25,0,0,0,.34.93,1.84,1.84,0,0,0,.83.5,12.89,12.89,0,0,0,1.39.34h.13l.09,0,.1,0a10.23,10.23,0,0,1,1.92.55,3.12,3.12,0,0,1,1.3,1,3.33,3.33,0,0,1,.52,2v0a3.54,3.54,0,0,1-.55,2,3.26,3.26,0,0,1-1.59,1.26,6.49,6.49,0,0,1-2.51.43Z" transform="translate(0 -2.41)"/><path d="M184.83,15.07,184,14.9a7.06,7.06,0,0,1-1.55-.52,6,6,0,0,1-1.32-.84l1.09-1.63a5.15,5.15,0,0,0,1.61.92,5.85,5.85,0,0,0,1.89.31,3.51,3.51,0,0,0,1.93-.45,1.4,1.4,0,0,0,.69-1.25h0a1.29,1.29,0,0,0-.31-.91,1.75,1.75,0,0,0-.8-.49,9.25,9.25,0,0,0-1.27-.3h-.11l-.15,0a12.66,12.66,0,0,1-2.05-.49,2.91,2.91,0,0,1-1.36-1,3.23,3.23,0,0,1-.57-2h0a3.73,3.73,0,0,1,.53-2,3.36,3.36,0,0,1,1.54-1.27,6.65,6.65,0,0,1,3.76-.28,7.17,7.17,0,0,1,1.31.43,6.84,6.84,0,0,1,1.25.72l-1,1.68a5.59,5.59,0,0,0-1.46-.78,4.21,4.21,0,0,0-1.45-.27,3.24,3.24,0,0,0-1.82.44A1.36,1.36,0,0,0,183.76,6h0a1.29,1.29,0,0,0,.33.93,1.89,1.89,0,0,0,.83.5,12.58,12.58,0,0,0,1.4.34h.12l.1,0,.09,0a10.59,10.59,0,0,1,1.93.55,3.16,3.16,0,0,1,1.29,1,3.26,3.26,0,0,1,.52,2v0a3.46,3.46,0,0,1-.55,2,3.28,3.28,0,0,1-1.58,1.26,6.52,6.52,0,0,1-2.51.43Z" transform="translate(0 -2.41)"/><path d="M192.68,2.54h2V15h-2Zm.84,0h7.3v2h-7.3Zm0,5.27h6.36v2h-6.36Zm0,5.18h7.3v2h-7.3Z" transform="translate(0 -2.41)"/><path d="M214.48,2.54h2.35V15h-1.91V5.48L215,6l-2.71,7.36h-1.64L207.94,6.2l.08-.72V15h-1.91V2.54h2.36l3,8.28Z" transform="translate(0 -2.41)"/><path d="M221.59,14.51A4,4,0,0,1,220,12.9a5,5,0,0,1-.55-2.4V7a5,5,0,0,1,.55-2.4A4,4,0,0,1,221.59,3a4.78,4.78,0,0,1,2.33-.56,4.73,4.73,0,0,1,2.33.56,3.93,3.93,0,0,1,1.57,1.61,5,5,0,0,1,.55,2.4V10.5a5,5,0,0,1-.55,2.4,3.93,3.93,0,0,1-1.57,1.61,4.73,4.73,0,0,1-2.33.56A4.78,4.78,0,0,1,221.59,14.51Zm3.57-1.77a2,2,0,0,0,.82-.87,2.9,2.9,0,0,0,.29-1.31V6.92A2.9,2.9,0,0,0,226,5.61a2,2,0,0,0-.82-.87,2.62,2.62,0,0,0-2.47,0,2,2,0,0,0-.82.87,2.78,2.78,0,0,0-.29,1.31v3.64a2.78,2.78,0,0,0,.29,1.31,2,2,0,0,0,.82.87,2.62,2.62,0,0,0,2.47,0Z" transform="translate(0 -2.41)"/><path d="M231,2.53h2V15h-2Zm.84,5.34h4.28a1.37,1.37,0,0,0,.75-.21,1.4,1.4,0,0,0,.51-.59,2.29,2.29,0,0,0,.19-.9,2.11,2.11,0,0,0-.18-.89,1.4,1.4,0,0,0-.51-.59,1.38,1.38,0,0,0-.76-.21h-4.28v-2h4.34A3.66,3.66,0,0,1,238,3a3.18,3.18,0,0,1,1.24,1.28,4,4,0,0,1,.43,1.91,4.06,4.06,0,0,1-.43,1.92A3.18,3.18,0,0,1,238,9.37a3.69,3.69,0,0,1-1.84.46h-4.34Zm3,1.57L237,9.05l3.26,5.9h-2.45Z" transform="translate(0 -2.41)"/><path d="M244.12,2.54h2.15l2.81,9,2.81-9H254L250,15h-1.74Z" transform="translate(0 -2.41)"/><path d="M257.66,15h-2.09V2.54h2.09Z" transform="translate(0 -2.41)"/><path d="M262.47,15h-2.08V2.54h2.08Z" transform="translate(0 -2.41)"/></g></g></svg>