<svg xmlns="http://www.w3.org/2000/svg" xmlns:xlink="http://www.w3.org/1999/xlink" viewBox="0 0 294.5 38.31"><defs><style>.cls-1{fill:url(#linear-gradient)}.cls-2{fill:#ec1b2f}.cls-3{font-size:7.12px;fill:#fff;font-family:Bariol-Regular,Bariol}.cls-4{letter-spacing:-.07em}.cls-5{letter-spacing:.02em}</style><linearGradient id="linear-gradient" x1="-23.54" x2="270.96" y1="-126.97" y2="-126.97" gradientTransform="translate(23.54 155.87)" gradientUnits="userSpaceOnUse"><stop offset="0" stop-color="#d8251c"/><stop offset="1" stop-color="#0191db"/></linearGradient></defs><title>footer</title><g id="Layer_2" data-name="Layer 2"><g id="Layer_1-2" data-name="Layer 1"><path d="M12,19.48H282.5a12,12,0,0,1,12,12v6.83a0,0,0,0,1,0,0H0a0,0,0,0,1,0,0V31.48A12,12,0,0,1,12,19.48Z" class="cls-1" transform="translate(294.5 57.79) rotate(180)"/><path d="M.06,0H45.33a35,35,0,0,1,35,35v3.17a0,0,0,0,1,0,0H11.06a11,11,0,0,1-11-11V0A0,0,0,0,1,.06,0Z" class="cls-2"/><text class="cls-3" transform="translate(11.99 22.6)">ww<tspan x="9.11" y="0" class="cls-4">w</tspan><tspan x="13.17" y="0">.pe</tspan><tspan x="21.24" y="0" class="cls-5">r</tspan><tspan x="23.59" y="0">tamina.com</tspan></text></g></g></svg>