<svg xmlns="http://www.w3.org/2000/svg" viewBox="0 0 141.11 33.9"><defs><style>.cls-1{fill:#006bb7}.cls-2{fill:#ec1b2f}.cls-3{fill:#231f20}.cls-4{fill:#abc32a}</style></defs><title>logo</title><g id="Layer_2" data-name="Layer 2"><g id="Layer_1-2" data-name="Layer 1"><path d="M0,33.79c.11,0,.12-.11.17-.17q5.49-8.46,11-16.93a4.75,4.75,0,0,1,4.21-2.28c3.76,0,7.53,0,11.3,0a.31.31,0,0,1,.22,0l-.18.14a7.07,7.07,0,0,0-1.81,1.93c-3.07,4.75-6.12,9.5-9.24,14.22l-.64.95A4.83,4.83,0,0,1,12,33.78c-.11,0-.11,0-.15.1H.18C.12,33.88,0,34,0,33.79Z" class="cls-1"/><path d="M35.35,0c0,.1,0,.08.09.08a5.06,5.06,0,0,1,3.24,2.25c2,3,3.89,6,5.81,9l.06.12h-.23c-3.54,0-7.09,0-10.64,0a4.76,4.76,0,0,1-4.19-2.27l-5.8-9c0-.05-.06-.11-.1-.17Z" class="cls-2"/><path d="M141.11,26h-2.44c-.22,0-.3-.08-.36-.29-.13-.5-.3-1-.44-1.49a.28.28,0,0,0-.31-.23H134.3a.28.28,0,0,0-.31.22c-.18.52-.37,1-.55,1.55a.3.3,0,0,1-.33.24H131c-.26,0-.27,0-.19-.26.9-2.65,1.79-5.31,2.69-8,.33-1,.67-2,1-3a.29.29,0,0,1,.34-.23h2.32a.27.27,0,0,1,.32.22c.57,1.76,1.15,3.51,1.72,5.27l1.8,5.48c0,.09,0,.21.15.25Zm-5.2-8c0,.05,0,.06-.06.08l-1,3.47c-.06.19,0,.24.19.23h1.64c.37,0,.38,0,.27-.37l-.68-2.21Z" class="cls-3"/><path d="M29.38,25.83H23.86c-.08,0-.18,0-.22,0s.05-.13.09-.19q2.88-4.46,5.75-8.92a4.76,4.76,0,0,1,4.17-2.27c3.56,0,7.12,0,10.69,0,.06,0,.14,0,.18,0s0,.11-.07.16c-2,3.05-3.87,6.11-5.91,9.1a4.72,4.72,0,0,1-4.08,2.14Z" class="cls-4"/><path d="M106.18,20.63c.12-.34.24-.67.35-1,.56-1.59,1.11-3.17,1.66-4.76a.37.37,0,0,1,.4-.29c.69,0,1.38,0,2.08,0,.22,0,.3.08.32.29.18,1.32.36,2.65.55,4,.22,1.64.46,3.27.69,4.91l.27,2c0,.27,0,.31-.28.31h-2.08c-.2,0-.28-.05-.3-.27-.15-1.51-.31-3-.47-4.53-.07-.65-.13-1.31-.24-2l-.33.85c-.72,1.89-1.43,3.77-2.14,5.66a.33.33,0,0,1-.35.26c-.74,0-.59.13-.85-.59-.72-2-1.43-4-2.15-6l-.09-.2-.16,1.22c-.15,1.27-.31,2.55-.47,3.82-.06.5-.13,1-.18,1.49,0,.17-.09.22-.24.21h-2.11c-.19,0-.25-.06-.22-.26l1.08-7c.2-1.31.4-2.62.59-3.92,0-.18.1-.26.29-.25h2a.3.3,0,0,1,.34.25L106,20.36C106.06,20.45,106.06,20.55,106.18,20.63Z" class="cls-3"/><path d="M126.57,21.59c.07-.09,0-.18,0-.27V15c0-.37,0-.37.38-.37h2c.18,0,.26.05.26.25q0,5.47,0,11c0,.19-.07.25-.25.25h-2.09a.35.35,0,0,1-.32-.18l-4.49-6.52-.3-.4c-.08.08,0,.17,0,.25v6.5c0,.34,0,.34-.34.34h-2c-.2,0-.29-.05-.29-.28,0-3.63,0-7.27,0-10.9,0-.21.07-.28.27-.27h2.09a.38.38,0,0,1,.33.17c1.26,1.84,2.54,3.69,3.81,5.53l.83,1.2Z" class="cls-3"/><path d="M70.65,20.3V14.91c0-.32,0-.32.31-.32,1.36,0,2.71,0,4.06,0a12.35,12.35,0,0,1,1.92.09,2.36,2.36,0,0,1,1.45.77,3.38,3.38,0,0,1,1,1.71,4.58,4.58,0,0,1-.21,2.38,3.09,3.09,0,0,1-2,1.78c-.24.08-.25.08-.09.28l3.2,4.14c.06.07.19.16.15.25s-.2.05-.31.05H77.52a.48.48,0,0,1-.43-.22c-.93-1.31-1.88-2.61-2.83-3.91a.48.48,0,0,0-.12-.16.5.5,0,0,0-.48-.09c-.15.05-.08.21-.08.32,0,1.24,0,2.49,0,3.74,0,.31,0,.31-.31.31H70.94c-.29,0-.29,0-.29-.3Zm2.93-2c0,.4,0,.8,0,1.2,0,.15.05.23.22.23h1.49a1.43,1.43,0,0,0,1.42-1.15,4.35,4.35,0,0,0,0-.51,1.12,1.12,0,0,0-1-1.13,8.82,8.82,0,0,0-2-.05c-.15,0-.17.1-.17.22Z" class="cls-3"/><path d="M61.42,20.31V14.93c0-.34,0-.34.33-.34h6.67c.32,0,.32,0,.32.32v1.77c0,.35,0,.35-.36.35H64.43c-.3,0-.3,0-.31.31,0,.49,0,1,0,1.46,0,.21.08.27.27.27,1.31,0,2.62,0,3.93,0,.33,0,.33,0,.33.33v1.8c0,.31,0,.31-.31.31h-3.9c-.31,0-.31,0-.32.3v1.44c0,.29,0,.3.31.3h4c.32,0,.32,0,.32.32v1.88c0,.21,0,.29-.27.29H61.69c-.23,0-.27-.09-.27-.29Z" class="cls-3"/><path d="M97.48,26H96.37a.25.25,0,0,1-.27-.2c-.14-.52-.31-1-.45-1.55A.31.31,0,0,0,95.3,24H92.09a.3.3,0,0,0-.34.24c-.17.52-.37,1-.55,1.55a.28.28,0,0,1-.3.22H88.7c-.17,0-.23,0-.17-.23q1.29-3.78,2.56-7.58c.37-1.13.76-2.25,1.13-3.38a.31.31,0,0,1,.35-.25h2.3c.18,0,.28,0,.34.23q1.79,5.47,3.59,11c.07.23,0,.26-.19.26Zm-3.8-8-.07.1c-.33,1.15-.65,2.3-1,3.45-.06.19,0,.22.19.22H94.5c.33,0,.34,0,.24-.32l-.66-2.16Z" class="cls-3"/><path d="M51.35,20.31V14.9c0-.31,0-.31.31-.31,1.38,0,2.76,0,4.14,0a9.16,9.16,0,0,1,1.74.17,2.84,2.84,0,0,1,2,1.46,4.47,4.47,0,0,1-.3,4.73A3.29,3.29,0,0,1,57,22.13a16.83,16.83,0,0,1-2.13,0h-.7c-.18,0-.24.07-.23.24v.73c0,.88,0,1.76,0,2.64,0,.19-.06.26-.25.26-.68,0-1.36,0-2,0-.23,0-.29-.08-.29-.3C51.36,23.93,51.35,22.12,51.35,20.31Zm2.58-1.95V19.6c0,.16.06.22.22.22h1.3a3.21,3.21,0,0,0,.82-.07,1.45,1.45,0,0,0,1.07-1.45A1.36,1.36,0,0,0,56.26,17a12.22,12.22,0,0,0-2.18-.06c-.15,0-.15.11-.15.22Z" class="cls-3"/><path d="M83.51,21.53V17.34c0-.31,0-.31-.31-.31H80.74c-.29,0-.29,0-.29-.3,0-.63,0-1.26,0-1.89,0-.19.06-.25.26-.25H89c.19,0,.26.06.26.25,0,.64,0,1.29,0,1.93,0,.21-.08.27-.28.26H86.47c-.3,0-.3,0-.3.31q0,4.17,0,8.34c0,.35,0,.35-.35.35h-2c-.21,0-.26-.08-.26-.27Z" class="cls-3"/><path d="M116.81,20.32v5.36c0,.35,0,.35-.35.35h-2c-.21,0-.27-.07-.27-.27V14.86c0-.22.08-.28.28-.27h2.11c.21,0,.28.07.28.28C116.81,16.68,116.81,18.5,116.81,20.32Z" class="cls-3"/></g></g></svg>